<?xml version="1.0" encoding="UTF-8" ?>
<!DOCTYPE svg PUBLIC "-//W3C//DTD SVG 1.1//EN" "http://www.w3.org/Graphics/SVG/1.1/DTD/svg11.dtd">
<svg width="181pt" height="39pt" viewBox="0 0 181 39" version="1.1" xmlns="http://www.w3.org/2000/svg">
<path fill="#2b2a2a" d=" M 0.00 0.00 L 19.93 0.00 C 24.32 4.66 27.64 10.17 31.77 15.04 C 30.00 15.06 28.24 15.06 26.47 15.04 C 24.99 16.55 23.11 17.95 22.67 20.14 C 22.44 22.13 23.19 24.06 23.62 25.98 C 24.76 26.67 25.89 27.37 27.03 28.06 C 29.30 27.86 31.91 28.18 33.69 26.44 C 35.83 24.30 35.54 21.00 35.25 18.25 C 35.56 18.54 36.19 19.11 36.50 19.40 C 36.61 21.76 37.12 24.07 37.63 26.37 C 39.75 27.24 41.93 27.98 44.20 28.33 C 47.42 31.94 50.49 35.71 54.04 39.00 L 26.17 39.00 C 22.18 35.83 18.80 31.98 15.61 28.02 C 17.31 27.54 18.93 26.83 20.57 26.16 C 21.09 23.55 21.08 20.88 20.27 18.32 C 19.64 18.27 18.38 18.16 17.74 18.11 C 19.33 16.41 20.66 14.09 19.44 11.79 C 16.50 9.07 12.20 10.37 8.61 10.07 C 8.63 16.03 8.55 21.99 8.53 27.95 C 7.94 24.39 7.83 20.68 6.46 17.31 C 4.81 14.39 2.13 12.25 0.00 9.70 L 0.00 0.00 Z" />
<path fill="#404040" d=" M 19.93 0.00 L 181.00 0.00 L 181.00 39.00 L 54.04 39.00 C 50.49 35.71 47.42 31.94 44.20 28.33 C 46.25 27.42 48.72 26.39 49.18 23.90 C 50.50 20.47 48.63 16.93 45.84 14.93 C 44.06 14.96 42.28 14.96 40.50 14.96 C 39.10 16.37 37.69 17.79 36.50 19.40 C 36.19 19.11 35.56 18.54 35.25 18.25 C 34.10 17.17 32.90 16.15 31.77 15.04 C 27.64 10.17 24.32 4.66 19.93 0.00 Z" />
<path fill="#f8f8f8" d=" M 51.39 9.89 C 52.65 9.46 53.92 9.06 55.19 8.66 C 55.23 12.49 55.23 16.32 55.17 20.14 C 56.49 18.41 57.83 16.69 59.20 15.00 C 60.67 14.99 62.13 14.98 63.59 14.97 C 61.98 16.58 60.42 18.24 58.86 19.90 C 60.48 22.54 62.73 24.89 63.85 27.78 C 62.67 27.97 61.48 28.10 60.29 28.19 C 58.88 26.08 57.45 23.99 55.95 21.96 C 55.36 23.90 55.18 25.94 55.05 27.96 C 53.84 27.98 52.63 28.00 51.42 28.02 C 51.41 21.97 51.42 15.93 51.39 9.89 Z" />
<path fill="#404040" d=" M 0.00 9.70 C 2.13 12.25 4.81 14.39 6.46 17.31 C 7.83 20.68 7.94 24.39 8.53 27.95 C 10.89 27.97 13.25 28.04 15.61 28.02 C 18.80 31.98 22.18 35.83 26.17 39.00 L 0.00 39.00 L 0.00 9.70 Z" />
<path fill="#f8f8f8" d=" M 8.61 10.07 C 12.20 10.37 16.50 9.07 19.44 11.79 C 20.66 14.09 19.33 16.41 17.74 18.11 C 18.38 18.16 19.64 18.27 20.27 18.32 C 21.08 20.88 21.09 23.55 20.57 26.16 C 18.93 26.83 17.31 27.54 15.61 28.02 C 13.25 28.04 10.89 27.97 8.53 27.95 C 8.55 21.99 8.63 16.03 8.61 10.07 Z" />
<path fill="#f8f8f8" d=" M 68.05 9.51 C 68.58 9.83 69.65 10.49 70.18 10.82 C 71.64 14.63 72.55 18.63 73.73 22.53 C 74.72 18.30 76.01 14.15 77.31 10.01 C 77.86 10.00 78.96 9.99 79.52 9.99 C 80.57 16.00 82.10 21.92 83.04 27.96 C 81.82 27.98 80.59 28.00 79.37 28.03 C 78.80 24.86 78.27 21.69 77.96 18.48 C 76.88 21.68 75.71 24.85 74.47 27.99 C 74.05 28.00 73.19 28.01 72.76 28.01 C 71.67 24.78 70.44 21.60 69.59 18.30 C 69.16 21.62 68.49 24.90 67.82 28.18 C 67.08 28.08 65.58 27.87 64.84 27.77 C 64.86 21.56 66.98 15.58 68.05 9.51 Z" />
<path fill="#f8f8f8" d=" M 104.20 9.96 C 104.62 10.00 105.44 10.09 105.86 10.13 C 108.46 16.02 110.71 22.07 113.13 28.03 C 111.75 28.01 110.36 27.98 108.98 27.94 C 108.62 26.65 108.25 25.36 107.90 24.07 C 105.93 24.04 103.97 24.00 102.00 24.00 C 101.72 25.32 101.44 26.65 101.15 27.97 C 99.69 27.99 98.22 28.00 96.76 28.01 C 99.45 22.08 101.31 15.79 104.20 9.96 Z" />
<path fill="#2b2a2a" d=" M 12.24 12.90 C 13.55 12.90 14.87 12.90 16.19 12.90 C 16.33 13.78 16.47 14.67 16.61 15.56 C 15.17 15.83 13.73 16.07 12.28 16.30 C 12.27 15.45 12.25 13.75 12.24 12.90 Z" />
<path fill="#f8f8f8" d=" M 116.68 15.00 C 119.12 15.04 121.63 15.10 123.94 14.17 C 124.46 14.69 125.50 15.72 126.02 16.23 C 125.72 16.48 125.14 16.97 124.84 17.21 C 126.00 20.08 124.54 22.50 122.20 24.09 C 120.74 24.04 119.28 24.01 117.83 23.98 L 117.74 25.00 C 119.70 25.00 121.67 25.00 123.63 25.00 C 124.42 25.71 125.20 26.42 125.99 27.13 C 125.60 28.57 126.12 30.60 124.58 31.46 C 121.34 34.10 116.80 33.11 113.31 31.55 C 114.05 30.78 114.76 29.96 115.57 29.26 C 117.98 29.60 121.41 31.23 122.77 28.19 C 119.94 27.49 115.99 29.27 114.04 26.52 C 114.16 25.28 114.54 24.08 114.84 22.88 C 114.17 21.35 112.91 19.79 113.63 18.03 C 114.49 16.87 115.62 15.96 116.68 15.00 Z" />
<path fill="#f8f8f8" d=" M 22.67 20.14 C 23.11 17.95 24.99 16.55 26.47 15.04 C 28.24 15.06 30.00 15.06 31.77 15.04 C 32.90 16.15 34.10 17.17 35.25 18.25 C 35.54 21.00 35.83 24.30 33.69 26.44 C 31.91 28.18 29.30 27.86 27.03 28.06 C 25.89 27.37 24.76 26.67 23.62 25.98 C 23.19 24.06 22.44 22.13 22.67 20.14 Z" />
<path fill="#f8f8f8" d=" M 36.50 19.40 C 37.69 17.79 39.10 16.37 40.50 14.96 C 42.28 14.96 44.06 14.96 45.84 14.93 C 48.63 16.93 50.50 20.47 49.18 23.90 C 48.72 26.39 46.25 27.42 44.20 28.33 C 41.93 27.98 39.75 27.24 37.63 26.37 C 37.12 24.07 36.61 21.76 36.50 19.40 Z" />
<path fill="#f8f8f8" d=" M 86.19 16.21 C 87.98 14.61 90.48 15.06 92.67 14.85 C 95.26 16.39 96.96 18.82 96.81 21.93 C 93.47 22.03 90.13 21.99 86.78 22.12 C 87.53 23.09 88.28 24.05 89.04 25.00 C 89.84 25.00 91.45 24.99 92.26 24.99 C 92.73 24.66 93.67 24.01 94.13 23.68 C 94.26 25.13 95.67 27.14 93.66 27.88 C 90.64 28.26 87.08 28.48 84.87 25.97 C 82.70 23.04 83.11 18.37 86.19 16.21 Z" />
<path fill="#f8f8f8" d=" M 129.27 15.10 C 130.98 14.91 132.70 14.99 134.42 14.98 C 135.10 15.41 136.46 16.28 137.14 16.72 C 137.82 20.58 137.82 24.52 138.59 28.37 C 137.09 28.00 135.61 27.59 134.14 27.14 C 133.81 27.35 133.15 27.77 132.82 27.97 C 131.47 28.01 130.12 28.05 128.77 28.11 C 127.22 26.73 126.33 24.97 126.24 22.88 C 128.39 20.65 131.22 19.53 134.33 19.79 C 133.92 19.28 133.10 18.26 132.69 17.75 C 131.23 18.13 129.78 18.55 128.34 18.98 C 128.32 17.60 127.75 15.93 129.27 15.10 Z" />
<path fill="#f8f8f8" d=" M 140.28 14.84 C 141.34 14.98 142.40 15.14 143.46 15.31 C 145.34 15.07 147.24 15.00 149.13 14.88 C 149.39 15.07 149.90 15.45 150.15 15.64 C 152.14 15.12 154.20 14.96 156.24 14.78 C 160.35 17.99 158.37 23.56 158.78 28.01 C 157.57 28.00 156.37 28.00 155.16 28.01 C 155.14 25.07 155.34 22.12 155.03 19.19 C 154.49 17.72 152.08 17.43 151.68 19.15 C 151.33 22.08 151.56 25.05 151.54 28.00 C 150.31 28.00 149.08 28.01 147.85 28.02 C 147.88 24.50 147.98 20.94 147.12 17.50 C 145.97 17.89 144.94 18.46 144.00 19.19 C 143.73 22.12 143.90 25.07 143.89 28.01 C 142.68 28.00 141.48 28.00 140.27 28.01 C 140.27 23.62 140.27 19.23 140.28 14.84 Z" />
<path fill="#f8f8f8" d=" M 163.20 16.20 C 164.98 14.61 167.49 15.06 169.68 14.86 C 172.26 16.40 173.97 18.82 173.81 21.93 C 170.47 22.03 167.13 21.99 163.79 22.12 C 164.53 23.09 165.28 24.05 166.03 25.00 C 166.84 25.00 168.45 24.99 169.25 24.99 C 169.72 24.66 170.66 24.01 171.13 23.69 C 171.26 25.13 172.66 27.13 170.67 27.88 C 167.66 28.25 164.10 28.49 161.88 25.99 C 159.69 23.06 160.11 18.36 163.20 16.20 Z" />
<path fill="#404040" d=" M 103.14 21.00 C 103.75 19.17 104.34 17.34 104.94 15.51 C 105.54 17.33 106.12 19.15 106.74 20.97 C 105.54 20.98 104.34 20.99 103.14 21.00 Z" />
<path fill="#2b2a2a" d=" M 27.47 18.57 C 29.51 16.42 32.49 19.36 31.91 21.77 C 32.17 23.71 30.18 24.62 29.00 25.72 C 26.40 24.50 24.87 20.53 27.47 18.57 Z" />
<path fill="#404040" d=" M 42.21 18.02 C 46.17 17.09 47.27 23.42 44.02 25.00 C 39.90 26.15 38.72 19.48 42.21 18.02 Z" />
<path fill="#404040" d=" M 87.11 19.98 C 87.65 19.32 88.18 18.66 88.72 18.00 C 89.44 18.00 90.88 18.02 91.60 18.02 C 92.01 18.52 92.84 19.51 93.26 20.00 C 91.21 20.01 89.16 19.98 87.11 19.98 Z" />
<path fill="#404040" d=" M 121.17 21.21 C 118.98 21.37 116.81 20.50 117.42 17.96 C 118.36 18.00 120.24 18.08 121.18 18.12 C 121.16 19.15 121.20 20.18 121.17 21.21 Z" />
<path fill="#404040" d=" M 164.12 19.98 C 164.65 19.32 165.18 18.66 165.70 18.00 C 166.43 18.00 167.88 18.02 168.60 18.02 C 169.02 18.52 169.84 19.51 170.26 20.00 C 168.21 20.01 166.17 19.98 164.12 19.98 Z" />
<path fill="#2b2a2a" d=" M 12.28 18.67 C 14.02 18.94 15.75 19.25 17.46 19.63 C 17.51 20.54 17.61 22.34 17.66 23.25 C 17.18 23.71 16.21 24.63 15.73 25.09 C 14.58 25.08 13.43 25.06 12.29 25.05 C 12.28 22.92 12.27 20.80 12.28 18.67 Z" />
<path fill="#404040" d=" M 130.07 25.23 C 130.27 24.65 130.67 23.49 130.87 22.91 C 131.87 23.01 133.88 23.22 134.88 23.32 C 133.58 24.65 131.85 25.05 130.07 25.23 Z" />
</svg>
